<mxfile host="app.diagrams.net" modified="2022-06-07T15:13:56.012Z" agent="5.0 (Windows)" etag="A5eiD0vrki10XqdRAWHh" version="18.1.3" type="github">
  <diagram id="DCZs-5VggQhy5fmnCBx7" name="Page-1">
    <mxGraphModel dx="860" dy="568" grid="1" gridSize="10" guides="1" tooltips="1" connect="1" arrows="1" fold="1" page="1" pageScale="1" pageWidth="827" pageHeight="1169" math="0" shadow="0">
      <root>
        <mxCell id="0" />
        <mxCell id="1" parent="0" />
        <mxCell id="lyzjYyBhKchkxcd_Njx_-16" value="Input" style="rounded=0;whiteSpace=wrap;html=1;portConstraint=none;align=center;fontSize=12.5;horizontal=1;" parent="1" vertex="1">
          <mxGeometry x="160" y="190" width="120" height="60" as="geometry" />
        </mxCell>
        <mxCell id="zQZ6RfHXHoT58C-zIAsw-8" style="edgeStyle=orthogonalEdgeStyle;rounded=0;sketch=0;jumpStyle=arc;orthogonalLoop=1;jettySize=auto;html=1;shadow=0;fontSize=12.5;endArrow=open;endFill=0;align=center;horizontal=1;" parent="1" source="lyzjYyBhKchkxcd_Njx_-17" target="lyzjYyBhKchkxcd_Njx_-20" edge="1">
          <mxGeometry relative="1" as="geometry" />
        </mxCell>
        <mxCell id="lyzjYyBhKchkxcd_Njx_-17" value="Samples&lt;br style=&quot;font-size: 12.5px;&quot;&gt;(n, 250, 2)" style="rounded=0;whiteSpace=wrap;html=1;fillColor=#eeeeee;strokeColor=#000000;fontColor=#000000;align=center;fontSize=12.5;horizontal=1;" parent="1" vertex="1">
          <mxGeometry x="280" y="190" width="120" height="60" as="geometry" />
        </mxCell>
        <mxCell id="lyzjYyBhKchkxcd_Njx_-20" value="LSTM-Enocder" style="rounded=0;whiteSpace=wrap;html=1;strokeColor=default;fillColor=default;align=center;fontSize=12.5;horizontal=1;" parent="1" vertex="1">
          <mxGeometry x="160" y="290" width="120" height="60" as="geometry" />
        </mxCell>
        <mxCell id="e-8I__skG1Ei_hXzQoh1-8" style="edgeStyle=orthogonalEdgeStyle;rounded=0;orthogonalLoop=1;jettySize=auto;html=1;entryX=0.75;entryY=0;entryDx=0;entryDy=0;endArrow=open;endFill=0;fontSize=12.5;horizontal=1;" edge="1" parent="1" source="lyzjYyBhKchkxcd_Njx_-21" target="zQZ6RfHXHoT58C-zIAsw-4">
          <mxGeometry relative="1" as="geometry" />
        </mxCell>
        <mxCell id="lyzjYyBhKchkxcd_Njx_-21" value="letzter Carry&lt;br style=&quot;font-size: 12.5px;&quot;&gt;(n, 100)" style="rounded=0;whiteSpace=wrap;html=1;fillColor=#eeeeee;strokeColor=#000000;fontColor=#000000;align=center;fontSize=12.5;horizontal=1;" parent="1" vertex="1">
          <mxGeometry x="400" y="290" width="120" height="60" as="geometry" />
        </mxCell>
        <mxCell id="e-8I__skG1Ei_hXzQoh1-7" style="edgeStyle=orthogonalEdgeStyle;rounded=0;orthogonalLoop=1;jettySize=auto;html=1;entryX=0.25;entryY=0;entryDx=0;entryDy=0;endArrow=open;endFill=0;fontSize=12.5;horizontal=1;" edge="1" parent="1" source="lyzjYyBhKchkxcd_Njx_-25" target="zQZ6RfHXHoT58C-zIAsw-4">
          <mxGeometry relative="1" as="geometry" />
        </mxCell>
        <mxCell id="lyzjYyBhKchkxcd_Njx_-25" value="letzter State&lt;br style=&quot;font-size: 12.5px;&quot;&gt;(n, 100)" style="rounded=0;whiteSpace=wrap;html=1;fillColor=#eeeeee;strokeColor=#000000;fontColor=#000000;align=center;fontSize=12.5;horizontal=1;" parent="1" vertex="1">
          <mxGeometry x="280" y="290" width="120" height="60" as="geometry" />
        </mxCell>
        <mxCell id="lyzjYyBhKchkxcd_Njx_-26" value="LSTM-Decoder" style="rounded=0;whiteSpace=wrap;html=1;align=center;fontSize=12.5;horizontal=1;" parent="1" vertex="1">
          <mxGeometry x="160" y="570" width="120" height="60" as="geometry" />
        </mxCell>
        <mxCell id="lyzjYyBhKchkxcd_Njx_-44" style="edgeStyle=orthogonalEdgeStyle;rounded=0;sketch=0;jumpStyle=arc;orthogonalLoop=1;jettySize=auto;html=1;shadow=0;endArrow=open;endFill=0;align=center;fontSize=12.5;horizontal=1;" parent="1" source="lyzjYyBhKchkxcd_Njx_-31" target="lyzjYyBhKchkxcd_Njx_-43" edge="1">
          <mxGeometry relative="1" as="geometry" />
        </mxCell>
        <mxCell id="lyzjYyBhKchkxcd_Njx_-31" value="Sequenz&lt;br style=&quot;font-size: 12.5px;&quot;&gt;(n, 100, 100)" style="rounded=0;whiteSpace=wrap;html=1;fillColor=#eeeeee;strokeColor=#000000;fontColor=#000000;align=center;fontSize=12.5;horizontal=1;" parent="1" vertex="1">
          <mxGeometry x="280" y="570" width="120" height="60" as="geometry" />
        </mxCell>
        <mxCell id="lyzjYyBhKchkxcd_Njx_-43" value="Dense Layer" style="rounded=0;whiteSpace=wrap;html=1;align=center;fontSize=12.5;horizontal=1;" parent="1" vertex="1">
          <mxGeometry x="160" y="670" width="120" height="60" as="geometry" />
        </mxCell>
        <mxCell id="lyzjYyBhKchkxcd_Njx_-45" value="finaler Output&lt;br style=&quot;font-size: 12.5px;&quot;&gt;(n, 100, 2)" style="rounded=0;whiteSpace=wrap;html=1;fillColor=#eeeeee;strokeColor=#000000;fontColor=#000000;align=center;fontSize=12.5;horizontal=1;" parent="1" vertex="1">
          <mxGeometry x="280" y="670" width="120" height="60" as="geometry" />
        </mxCell>
        <mxCell id="tZL0WK68z5xAQGYzn7wN-23" style="edgeStyle=orthogonalEdgeStyle;rounded=0;orthogonalLoop=1;jettySize=auto;html=1;endArrow=open;endFill=0;exitX=0.25;exitY=1;exitDx=0;exitDy=0;align=center;fontSize=12.5;horizontal=1;fontStyle=0" parent="1" source="zQZ6RfHXHoT58C-zIAsw-4" edge="1">
          <mxGeometry relative="1" as="geometry">
            <mxPoint x="460" y="420" as="targetPoint" />
            <Array as="points">
              <mxPoint x="340" y="420" />
              <mxPoint x="460" y="420" />
            </Array>
          </mxGeometry>
        </mxCell>
        <mxCell id="e-8I__skG1Ei_hXzQoh1-10" style="edgeStyle=orthogonalEdgeStyle;rounded=0;orthogonalLoop=1;jettySize=auto;html=1;entryX=0.5;entryY=0;entryDx=0;entryDy=0;endArrow=open;endFill=0;fontSize=12.5;horizontal=1;fontStyle=0" edge="1" parent="1" source="zQZ6RfHXHoT58C-zIAsw-4" target="e-8I__skG1Ei_hXzQoh1-1">
          <mxGeometry relative="1" as="geometry">
            <Array as="points">
              <mxPoint x="340" y="410" />
              <mxPoint x="340" y="410" />
            </Array>
          </mxGeometry>
        </mxCell>
        <mxCell id="zQZ6RfHXHoT58C-zIAsw-4" value="&lt;font style=&quot;font-size: 12.5px;&quot;&gt;Batch-Normalisierung&lt;/font&gt;en" style="text;html=1;align=center;verticalAlign=middle;whiteSpace=wrap;rounded=0;fontSize=12.5;fontStyle=0;fillColor=default;strokeColor=default;horizontal=1;" parent="1" vertex="1">
          <mxGeometry x="280" y="370" width="240" height="30" as="geometry" />
        </mxCell>
        <mxCell id="tZL0WK68z5xAQGYzn7wN-19" style="edgeStyle=orthogonalEdgeStyle;rounded=0;orthogonalLoop=1;jettySize=auto;html=1;entryX=0.75;entryY=0;entryDx=0;entryDy=0;endArrow=open;endFill=0;exitX=0.75;exitY=1;exitDx=0;exitDy=0;align=center;fontSize=12.5;horizontal=1;" parent="1" source="zQZ6RfHXHoT58C-zIAsw-4" target="lyzjYyBhKchkxcd_Njx_-26" edge="1">
          <mxGeometry relative="1" as="geometry">
            <mxPoint x="460" y="470" as="sourcePoint" />
            <Array as="points">
              <mxPoint x="460" y="550" />
              <mxPoint x="250" y="550" />
            </Array>
          </mxGeometry>
        </mxCell>
        <mxCell id="e-8I__skG1Ei_hXzQoh1-5" style="edgeStyle=orthogonalEdgeStyle;rounded=0;orthogonalLoop=1;jettySize=auto;html=1;entryX=0.5;entryY=0;entryDx=0;entryDy=0;endArrow=open;endFill=0;fontSize=12.5;horizontal=1;" edge="1" parent="1" source="tZL0WK68z5xAQGYzn7wN-24" target="lyzjYyBhKchkxcd_Njx_-26">
          <mxGeometry relative="1" as="geometry">
            <Array as="points">
              <mxPoint x="340" y="530" />
              <mxPoint x="220" y="530" />
            </Array>
          </mxGeometry>
        </mxCell>
        <mxCell id="tZL0WK68z5xAQGYzn7wN-24" value="&lt;div style=&quot;font-size: 12.5px;&quot;&gt;letzter State in 3D&lt;br&gt;&lt;/div&gt;&lt;div style=&quot;font-size: 12.5px;&quot;&gt;(n, 100, 100)&lt;br style=&quot;font-size: 12.5px;&quot;&gt;&lt;/div&gt;" style="rounded=0;whiteSpace=wrap;html=1;strokeColor=default;fillColor=#EEEEEE;fontSize=12.5;horizontal=1;" parent="1" vertex="1">
          <mxGeometry x="280" y="470" width="120" height="40" as="geometry" />
        </mxCell>
        <mxCell id="e-8I__skG1Ei_hXzQoh1-1" value="&lt;div style=&quot;font-size: 12.5px;&quot;&gt;Vektorwiederholung&lt;/div&gt;" style="rounded=0;whiteSpace=wrap;html=1;strokeColor=default;fillColor=#FFFFFF;fontSize=12.5;horizontal=1;fontStyle=0" vertex="1" parent="1">
          <mxGeometry x="280" y="440" width="120" height="30" as="geometry" />
        </mxCell>
      </root>
    </mxGraphModel>
  </diagram>
</mxfile>
